<svg xmlns="http://www.w3.org/2000/svg" viewBox="0 0 85 57" enable-background="new 0 0 85 57"><path fill="#DE2110" d="M0 0h85.6v57h-85.6z"/><path fill="#08399C" d="M0 0h43v28.6h-43z"/><path fill="#fff" d="M23.2 7.8l3.8-3.2-.8 4.9 4.9-.8-3.2 3.8 4.7 1.7-4.6 1.8 3.2 3.8-5-.8.9 4.9-3.9-3.2-1.7 4.7-1.7-4.7-3.9 3.2.9-4.9-4.9.9 3.1-3.9-4.7-1.7 4.7-1.8-3.2-3.8 5 .8-.9-4.9 3.8 3.2 1.8-4.7z"/><circle stroke="#003A96" stroke-width="1.069" stroke-miterlimit="10" cx="21.4" cy="14.3" r="6.4" fill="none"/></svg>